<svg width="32" height="32" fill="none" xmlns="http://www.w3.org/2000/svg" aria-labelledby="title">
  <title id="title">favicon</title>
  <g clip-path="url(#favicon)">
    <path d="M22.081 19.868c10.056-2.744 5.374-15.053 5.374-15.053 8.271 9.04 4.78 22.683-6.646 26.223"
      fill="#EA5699" />
    <path
      d="M14.995 19.69C11.113 15.89 7.62 10.842 9.256 5.393c2.582-6.304 8.62-5.34 8.62-5.34.956.114 3.561 2.062 3.55 3.925-.099.785-1.159 1.045.577 3.502l-.076.065-1.283-1.43c-.685-.47-2.309-1.233-2.155-3.713 0 0 .071-.918-2.365-.547-6.616 1.9-5.978 8.773-3.333 11.885 2.827 3.384 5.705 3.996 6.926 4.593 8.742 4.293 5.011 14.328-4.057 13.633C1.073 31.186-4.804 14.758 4.446 4.902c-2.27 3.492-4.147 8.558-.268 9.9 5.417 1.696 7.761 3.294 8.325 5.726.812 1.15 3.11.139 2.492-.837Z"
      fill="#E5097F" />
  </g>
  <defs>
    <clipPath id="favicon">
      <path fill="#fff" d="M0 0h32v32H0z" />
    </clipPath>
  </defs>
</svg>
