<svg width="16" height="16" xmlns="http://www.w3.org/2000/svg">
  <g clip-path="url(#wa)">
    <path
      d="M8 .833a7.173 7.173 0 0 0-6.283 10.62l-.884 3.714 3.714-.884a7.17 7.17 0 0 0 10.388-4.5A7.167 7.167 0 0 0 8 .832ZM4.417 4.09H6.37a.333.333 0 0 1 .333.333c-.01.445.064.887.22 1.304a.643.643 0 0 1-.22.813l-.683.667a6.2 6.2 0 0 0 1.173 1.596A6.2 6.2 0 0 0 8.783 10l.667-.683c.333-.334.487-.334.813-.22.417.156.86.23 1.304.22a.35.35 0 0 1 .333.333v1.953a.35.35 0 0 1-.333.334 7.893 7.893 0 0 1-5.214-2.28 7.867 7.867 0 0 1-2.28-5.214.357.357 0 0 1 .344-.353Z"
      fill="inherit" />
    <path
      d="M4.417 4.09H6.37a.333.333 0 0 1 .333.333c-.01.445.064.887.22 1.304a.643.643 0 0 1-.22.813l-.683.667a6.2 6.2 0 0 0 1.173 1.596A6.2 6.2 0 0 0 8.783 10l.667-.683c.333-.334.487-.334.813-.22.417.156.86.23 1.304.22a.35.35 0 0 1 .333.333v1.953a.35.35 0 0 1-.333.334 7.893 7.893 0 0 1-5.214-2.28 7.867 7.867 0 0 1-2.28-5.214.357.357 0 0 1 .344-.353Z"
      fill="inherit" />
    <path
      d="M8 .833a7.173 7.173 0 0 0-6.283 10.62l-.884 3.714 3.714-.884a7.17 7.17 0 0 0 10.388-4.5A7.167 7.167 0 0 0 8 .832ZM4.417 4.09H6.37a.333.333 0 0 1 .333.333c-.01.445.064.887.22 1.304a.643.643 0 0 1-.22.813l-.683.667a6.2 6.2 0 0 0 1.173 1.596A6.2 6.2 0 0 0 8.783 10l.667-.683c.333-.334.487-.334.813-.22.417.156.86.23 1.304.22a.35.35 0 0 1 .333.333v1.953a.35.35 0 0 1-.333.334 7.893 7.893 0 0 1-5.214-2.28 7.867 7.867 0 0 1-2.28-5.214.357.357 0 0 1 .344-.353Z"
      stroke="inherit" stroke-width=".8" stroke-linecap="round" stroke-linejoin="round" />
    <path
      d="M4.417 4.09H6.37a.333.333 0 0 1 .333.333c-.01.445.064.887.22 1.304a.643.643 0 0 1-.22.813l-.683.667a6.2 6.2 0 0 0 1.173 1.596A6.2 6.2 0 0 0 8.783 10l.667-.683c.333-.334.487-.334.813-.22.417.156.86.23 1.304.22a.35.35 0 0 1 .333.333v1.953a.35.35 0 0 1-.333.334 7.893 7.893 0 0 1-5.214-2.28 7.867 7.867 0 0 1-2.28-5.214.357.357 0 0 1 .344-.353Z"
      stroke="inherit" stroke-width=".8" stroke-linecap="round" stroke-linejoin="round" />
  </g>
  <defs>
    <clipPath id="wa">
      <path fill="#fff" d="M0 0h16v16H0z" />
    </clipPath>
  </defs>
</svg>
