<svg width="64" height="64" viewBox="0 0 64 64" fill="none" xmlns="http://www.w3.org/2000/svg"><g clip-path="url(#a)"><path d="M44.163 39.736C64.273 34.248 54.91 9.631 54.91 9.631c16.542 18.08 9.56 45.364-13.293 52.445" fill="#EA5699"/><path d="M29.989 39.38c-7.762-7.603-14.748-17.697-11.476-28.594C23.677-1.823 35.755.106 35.755.106c1.91.227 7.122 4.123 7.1 7.85-.199 1.57-2.318 2.089 1.153 7.004l-.152.13-2.565-2.86c-1.371-.94-4.618-2.467-4.311-7.426 0 0 .142-1.837-4.73-1.094-13.232 3.8-11.956 17.546-6.666 23.77 5.654 6.768 11.41 7.992 13.852 9.186C56.92 45.25 49.46 65.32 31.322 63.93 2.146 62.371-9.608 29.516 8.893 9.805c-4.54 6.983-8.295 17.116-.536 19.8 10.833 3.39 15.522 6.588 16.648 11.451 1.625 2.298 6.22.277 4.985-1.675h-.001Z" fill="#E5097F"/></g><defs><clipPath id="a"><path fill="#fff" d="M0 0h64v64H0z"/></clipPath></defs></svg>
