<svg width="24" height="24" viewBox="0 0 24 24" fill="none" xmlns="http://www.w3.org/2000/svg">
<path d="M20 21V19C20 17.9391 19.5786 16.9217 18.8284 16.1716C18.0783 15.4214 17.0609 15 16 15H8C6.93913 15 5.92172 15.4214 5.17157 16.1716C4.42143 16.9217 4 17.9391 4 19V21" fill="#inherit"/>
<path d="M12 11C14.2091 11 16 9.20914 16 7C16 4.79086 14.2091 3 12 3C9.79086 3 8 4.79086 8 7C8 9.20914 9.79086 11 12 11Z" fill="#inherit"/>
<path d="M20 21V21.5C20.2761 21.5 20.5 21.2761 20.5 21H20ZM16 15V14.5V15ZM8 15V14.5V15ZM4 19H3.5H4ZM4 21H3.5C3.5 21.2761 3.72386 21.5 4 21.5V21ZM20.5 21V19H19.5V21H20.5ZM20.5 19C20.5 17.8065 20.0259 16.6619 19.182 15.818L18.4749 16.5251C19.1313 17.1815 19.5 18.0717 19.5 19H20.5ZM19.182 15.818C18.3381 14.9741 17.1935 14.5 16 14.5V15.5C16.9283 15.5 17.8185 15.8687 18.4749 16.5251L19.182 15.818ZM16 14.5H8V15.5H16V14.5ZM8 14.5C6.80653 14.5 5.66193 14.9741 4.81802 15.818L5.52513 16.5251C6.1815 15.8687 7.07174 15.5 8 15.5V14.5ZM4.81802 15.818C3.97411 16.6619 3.5 17.8065 3.5 19H4.5C4.5 18.0717 4.86875 17.1815 5.52513 16.5251L4.81802 15.818ZM3.5 19V21H4.5V19H3.5ZM15.5 7C15.5 8.933 13.933 10.5 12 10.5V11.5C14.4853 11.5 16.5 9.48528 16.5 7H15.5ZM12 10.5C10.067 10.5 8.5 8.933 8.5 7H7.5C7.5 9.48528 9.51472 11.5 12 11.5V10.5ZM8.5 7C8.5 5.067 10.067 3.5 12 3.5V2.5C9.51472 2.5 7.5 4.51472 7.5 7H8.5ZM12 3.5C13.933 3.5 15.5 5.067 15.5 7H16.5C16.5 4.51472 14.4853 2.5 12 2.5V3.5ZM4 21.5H20V20.5H4V21.5Z" fill="#1A1A1A"/>
</svg>
